<mxfile host="app.diagrams.net" agent="Mozilla/5.0 (Windows NT 10.0; Win64; x64) AppleWebKit/537.36 (KHTML, like Gecko) Chrome/135.0.0.0 Safari/537.36" version="26.2.13">
  <diagram name="Page-1" id="Db3uLFNYWLxjRs0IxsFi">
    <mxGraphModel dx="1044" dy="1708" grid="1" gridSize="10" guides="1" tooltips="1" connect="1" arrows="1" fold="1" page="1" pageScale="1" pageWidth="850" pageHeight="1100" math="0" shadow="0">
      <root>
        <mxCell id="0" />
        <mxCell id="1" parent="0" />
        <mxCell id="4-HIXqGWywYoXH_22afx-30" style="edgeStyle=orthogonalEdgeStyle;rounded=1;orthogonalLoop=1;jettySize=auto;html=1;exitX=0.75;exitY=1;exitDx=0;exitDy=0;entryX=0;entryY=0.5;entryDx=0;entryDy=0;curved=0;" parent="1" source="4-HIXqGWywYoXH_22afx-22" target="4-HIXqGWywYoXH_22afx-26" edge="1">
          <mxGeometry relative="1" as="geometry" />
        </mxCell>
        <mxCell id="4-HIXqGWywYoXH_22afx-31" style="edgeStyle=orthogonalEdgeStyle;rounded=1;orthogonalLoop=1;jettySize=auto;html=1;exitX=0.25;exitY=1;exitDx=0;exitDy=0;entryX=0;entryY=0.5;entryDx=0;entryDy=0;curved=0;" parent="1" source="4-HIXqGWywYoXH_22afx-22" target="4-HIXqGWywYoXH_22afx-27" edge="1">
          <mxGeometry relative="1" as="geometry" />
        </mxCell>
        <mxCell id="4-HIXqGWywYoXH_22afx-22" value="" style="rounded=1;whiteSpace=wrap;html=1;fillColor=#000000;strokeWidth=3;perimeterSpacing=0;arcSize=50;rotation=-90;" parent="1" vertex="1">
          <mxGeometry x="30" y="-96" width="120" height="2" as="geometry" />
        </mxCell>
        <mxCell id="4-HIXqGWywYoXH_22afx-26" value="Handle Command" style="rounded=1;whiteSpace=wrap;html=1;" parent="1" vertex="1">
          <mxGeometry x="130" y="-172.5" width="80" height="35" as="geometry" />
        </mxCell>
        <mxCell id="OVjrjm0DGqNcUa_zHmCY-18" style="edgeStyle=orthogonalEdgeStyle;rounded=1;orthogonalLoop=1;jettySize=auto;html=1;exitX=1;exitY=0.5;exitDx=0;exitDy=0;entryX=0;entryY=0.5;entryDx=0;entryDy=0;curved=0;" parent="1" source="4-HIXqGWywYoXH_22afx-27" target="OVjrjm0DGqNcUa_zHmCY-35" edge="1">
          <mxGeometry relative="1" as="geometry">
            <mxPoint x="315" y="15" as="targetPoint" />
            <mxPoint x="265" y="-43.5" as="sourcePoint" />
          </mxGeometry>
        </mxCell>
        <mxCell id="4-HIXqGWywYoXH_22afx-27" value="Handle Response" style="rounded=1;whiteSpace=wrap;html=1;" parent="1" vertex="1">
          <mxGeometry x="145" y="-61" width="80" height="35" as="geometry" />
        </mxCell>
        <mxCell id="4-HIXqGWywYoXH_22afx-99" value="" style="ellipse;whiteSpace=wrap;html=1;aspect=fixed;" parent="1" vertex="1">
          <mxGeometry x="1060" y="-112.5" width="30" height="30" as="geometry" />
        </mxCell>
        <mxCell id="4-HIXqGWywYoXH_22afx-102" value="" style="ellipse;whiteSpace=wrap;html=1;aspect=fixed;fillColor=#000000;" parent="1" vertex="1">
          <mxGeometry x="1065" y="-107.5" width="20" height="20" as="geometry" />
        </mxCell>
        <mxCell id="OVjrjm0DGqNcUa_zHmCY-17" style="edgeStyle=orthogonalEdgeStyle;rounded=0;orthogonalLoop=1;jettySize=auto;html=1;exitX=1;exitY=0.5;exitDx=0;exitDy=0;entryX=0.5;entryY=0;entryDx=0;entryDy=0;" parent="1" source="OVjrjm0DGqNcUa_zHmCY-16" target="4-HIXqGWywYoXH_22afx-22" edge="1">
          <mxGeometry relative="1" as="geometry" />
        </mxCell>
        <mxCell id="OVjrjm0DGqNcUa_zHmCY-16" value="" style="ellipse;whiteSpace=wrap;html=1;aspect=fixed;fillColor=#000000;" parent="1" vertex="1">
          <mxGeometry x="30" y="-107.5" width="25" height="25" as="geometry" />
        </mxCell>
        <mxCell id="OVjrjm0DGqNcUa_zHmCY-27" style="edgeStyle=orthogonalEdgeStyle;rounded=1;orthogonalLoop=1;jettySize=auto;html=1;exitX=1;exitY=0.5;exitDx=0;exitDy=0;entryX=0.5;entryY=0;entryDx=0;entryDy=0;curved=0;" parent="1" source="4-HIXqGWywYoXH_22afx-26" target="OVjrjm0DGqNcUa_zHmCY-26" edge="1">
          <mxGeometry relative="1" as="geometry">
            <mxPoint x="330" y="-190" as="sourcePoint" />
          </mxGeometry>
        </mxCell>
        <mxCell id="OVjrjm0DGqNcUa_zHmCY-32" style="edgeStyle=orthogonalEdgeStyle;rounded=1;orthogonalLoop=1;jettySize=auto;html=1;exitX=0.75;exitY=1;exitDx=0;exitDy=0;entryX=0;entryY=0.5;entryDx=0;entryDy=0;curved=0;" parent="1" source="OVjrjm0DGqNcUa_zHmCY-26" target="31yTLRak6UwY2Wjq4VYe-1" edge="1">
          <mxGeometry relative="1" as="geometry">
            <mxPoint x="440" y="-252.5" as="targetPoint" />
          </mxGeometry>
        </mxCell>
        <mxCell id="31yTLRak6UwY2Wjq4VYe-36" style="edgeStyle=orthogonalEdgeStyle;rounded=1;orthogonalLoop=1;jettySize=auto;html=1;exitX=0.25;exitY=1;exitDx=0;exitDy=0;curved=0;" parent="1" source="OVjrjm0DGqNcUa_zHmCY-26" target="31yTLRak6UwY2Wjq4VYe-17" edge="1">
          <mxGeometry relative="1" as="geometry">
            <mxPoint x="280" y="-143" as="targetPoint" />
          </mxGeometry>
        </mxCell>
        <mxCell id="OVjrjm0DGqNcUa_zHmCY-26" value="" style="rounded=1;whiteSpace=wrap;html=1;fillColor=#000000;strokeWidth=3;perimeterSpacing=0;arcSize=50;rotation=-90;" parent="1" vertex="1">
          <mxGeometry x="190" y="-174.5" width="120" height="2" as="geometry" />
        </mxCell>
        <mxCell id="OVjrjm0DGqNcUa_zHmCY-45" style="edgeStyle=orthogonalEdgeStyle;rounded=1;orthogonalLoop=1;jettySize=auto;html=1;exitX=0.5;exitY=1;exitDx=0;exitDy=0;entryX=0;entryY=0.5;entryDx=0;entryDy=0;curved=0;" parent="1" source="OVjrjm0DGqNcUa_zHmCY-35" target="OVjrjm0DGqNcUa_zHmCY-41" edge="1">
          <mxGeometry relative="1" as="geometry" />
        </mxCell>
        <mxCell id="31yTLRak6UwY2Wjq4VYe-6" value="Yes" style="edgeLabel;html=1;align=center;verticalAlign=middle;resizable=0;points=[];" parent="OVjrjm0DGqNcUa_zHmCY-45" vertex="1" connectable="0">
          <mxGeometry x="0.1104" y="-4" relative="1" as="geometry">
            <mxPoint x="24" y="-4" as="offset" />
          </mxGeometry>
        </mxCell>
        <mxCell id="31yTLRak6UwY2Wjq4VYe-3" style="edgeStyle=orthogonalEdgeStyle;rounded=1;orthogonalLoop=1;jettySize=auto;html=1;exitX=0.5;exitY=0;exitDx=0;exitDy=0;entryX=0;entryY=0.5;entryDx=0;entryDy=0;curved=0;" parent="1" source="OVjrjm0DGqNcUa_zHmCY-35" target="31yTLRak6UwY2Wjq4VYe-25" edge="1">
          <mxGeometry relative="1" as="geometry">
            <mxPoint x="450" y="-17.5" as="targetPoint" />
          </mxGeometry>
        </mxCell>
        <mxCell id="31yTLRak6UwY2Wjq4VYe-5" value="No" style="edgeLabel;html=1;align=center;verticalAlign=middle;resizable=0;points=[];" parent="31yTLRak6UwY2Wjq4VYe-3" vertex="1" connectable="0">
          <mxGeometry x="-0.4327" y="-3" relative="1" as="geometry">
            <mxPoint x="17" y="-17" as="offset" />
          </mxGeometry>
        </mxCell>
        <mxCell id="OVjrjm0DGqNcUa_zHmCY-35" value="" style="rhombus;whiteSpace=wrap;html=1;" parent="1" vertex="1">
          <mxGeometry x="355" y="20" width="30" height="30" as="geometry" />
        </mxCell>
        <mxCell id="OVjrjm0DGqNcUa_zHmCY-36" value="Confirm received?" style="text;html=1;align=center;verticalAlign=middle;whiteSpace=wrap;rounded=0;" parent="1" vertex="1">
          <mxGeometry x="265" y="40" width="90" height="30" as="geometry" />
        </mxCell>
        <mxCell id="OVjrjm0DGqNcUa_zHmCY-46" style="edgeStyle=orthogonalEdgeStyle;rounded=1;orthogonalLoop=1;jettySize=auto;html=1;exitX=1;exitY=0.5;exitDx=0;exitDy=0;entryX=0.5;entryY=1;entryDx=0;entryDy=0;curved=0;" parent="1" source="OVjrjm0DGqNcUa_zHmCY-41" target="OVjrjm0DGqNcUa_zHmCY-43" edge="1">
          <mxGeometry relative="1" as="geometry" />
        </mxCell>
        <mxCell id="OVjrjm0DGqNcUa_zHmCY-41" value="Send signal to end timeout" style="rounded=1;whiteSpace=wrap;html=1;" parent="1" vertex="1">
          <mxGeometry x="480" y="120" width="80" height="35" as="geometry" />
        </mxCell>
        <mxCell id="OVjrjm0DGqNcUa_zHmCY-76" style="edgeStyle=orthogonalEdgeStyle;rounded=1;orthogonalLoop=1;jettySize=auto;html=1;exitX=1;exitY=0.5;exitDx=0;exitDy=0;entryX=0.25;entryY=0;entryDx=0;entryDy=0;curved=0;" parent="1" source="OVjrjm0DGqNcUa_zHmCY-42" target="OVjrjm0DGqNcUa_zHmCY-78" edge="1">
          <mxGeometry relative="1" as="geometry">
            <mxPoint x="960" y="-50" as="targetPoint" />
            <Array as="points">
              <mxPoint x="885" y="35" />
              <mxPoint x="885" y="-67" />
            </Array>
          </mxGeometry>
        </mxCell>
        <mxCell id="OVjrjm0DGqNcUa_zHmCY-42" value="Process by FSM" style="rounded=1;whiteSpace=wrap;html=1;" parent="1" vertex="1">
          <mxGeometry x="770" y="20" width="80" height="35" as="geometry" />
        </mxCell>
        <mxCell id="OVjrjm0DGqNcUa_zHmCY-48" style="edgeStyle=orthogonalEdgeStyle;rounded=0;orthogonalLoop=1;jettySize=auto;html=1;exitX=1;exitY=0.5;exitDx=0;exitDy=0;entryX=0;entryY=0.5;entryDx=0;entryDy=0;" parent="1" source="OVjrjm0DGqNcUa_zHmCY-43" target="OVjrjm0DGqNcUa_zHmCY-42" edge="1">
          <mxGeometry relative="1" as="geometry">
            <mxPoint x="580" y="35" as="targetPoint" />
          </mxGeometry>
        </mxCell>
        <mxCell id="OVjrjm0DGqNcUa_zHmCY-43" value="" style="rhombus;whiteSpace=wrap;html=1;" parent="1" vertex="1">
          <mxGeometry x="680" y="22.5" width="30" height="30" as="geometry" />
        </mxCell>
        <mxCell id="OVjrjm0DGqNcUa_zHmCY-74" style="edgeStyle=orthogonalEdgeStyle;rounded=1;orthogonalLoop=1;jettySize=auto;html=1;exitX=0.5;exitY=1;exitDx=0;exitDy=0;entryX=0.75;entryY=0;entryDx=0;entryDy=0;curved=0;" parent="1" source="OVjrjm0DGqNcUa_zHmCY-62" target="OVjrjm0DGqNcUa_zHmCY-78" edge="1">
          <mxGeometry relative="1" as="geometry">
            <mxPoint x="920" y="-137" as="targetPoint" />
          </mxGeometry>
        </mxCell>
        <mxCell id="OVjrjm0DGqNcUa_zHmCY-62" value="" style="rounded=1;whiteSpace=wrap;html=1;fillColor=#000000;strokeWidth=3;perimeterSpacing=0;arcSize=50;rotation=-90;" parent="1" vertex="1">
          <mxGeometry x="790" y="-200" width="120" height="2" as="geometry" />
        </mxCell>
        <mxCell id="OVjrjm0DGqNcUa_zHmCY-80" style="edgeStyle=orthogonalEdgeStyle;rounded=0;orthogonalLoop=1;jettySize=auto;html=1;exitX=0.5;exitY=1;exitDx=0;exitDy=0;entryX=0;entryY=0.5;entryDx=0;entryDy=0;" parent="1" source="OVjrjm0DGqNcUa_zHmCY-78" target="4-HIXqGWywYoXH_22afx-99" edge="1">
          <mxGeometry relative="1" as="geometry" />
        </mxCell>
        <mxCell id="OVjrjm0DGqNcUa_zHmCY-78" value="" style="rounded=1;whiteSpace=wrap;html=1;fillColor=#000000;strokeWidth=3;perimeterSpacing=0;arcSize=50;rotation=-90;" parent="1" vertex="1">
          <mxGeometry x="940" y="-98" width="120" height="2" as="geometry" />
        </mxCell>
        <mxCell id="31yTLRak6UwY2Wjq4VYe-64" style="edgeStyle=orthogonalEdgeStyle;rounded=1;orthogonalLoop=1;jettySize=auto;html=1;entryX=0.75;entryY=0;entryDx=0;entryDy=0;exitX=1;exitY=0.5;exitDx=0;exitDy=0;curved=0;" parent="1" source="31yTLRak6UwY2Wjq4VYe-1" target="OVjrjm0DGqNcUa_zHmCY-62" edge="1">
          <mxGeometry relative="1" as="geometry">
            <Array as="points">
              <mxPoint x="820" y="-372" />
              <mxPoint x="820" y="-229" />
            </Array>
          </mxGeometry>
        </mxCell>
        <mxCell id="31yTLRak6UwY2Wjq4VYe-1" value="Continue with other tasks" style="rounded=1;whiteSpace=wrap;html=1;" parent="1" vertex="1">
          <mxGeometry x="430" y="-390" width="80" height="35" as="geometry" />
        </mxCell>
        <mxCell id="31yTLRak6UwY2Wjq4VYe-4" style="edgeStyle=orthogonalEdgeStyle;rounded=1;orthogonalLoop=1;jettySize=auto;html=1;entryX=0.5;entryY=0;entryDx=0;entryDy=0;curved=0;exitX=1;exitY=0.5;exitDx=0;exitDy=0;" parent="1" source="31yTLRak6UwY2Wjq4VYe-25" target="OVjrjm0DGqNcUa_zHmCY-43" edge="1">
          <mxGeometry relative="1" as="geometry">
            <mxPoint x="530" y="-17.5" as="sourcePoint" />
          </mxGeometry>
        </mxCell>
        <mxCell id="31yTLRak6UwY2Wjq4VYe-30" value="No" style="edgeLabel;html=1;align=center;verticalAlign=middle;resizable=0;points=[];" parent="31yTLRak6UwY2Wjq4VYe-4" vertex="1" connectable="0">
          <mxGeometry x="-0.3169" y="1" relative="1" as="geometry">
            <mxPoint as="offset" />
          </mxGeometry>
        </mxCell>
        <mxCell id="31yTLRak6UwY2Wjq4VYe-12" style="edgeStyle=orthogonalEdgeStyle;rounded=0;orthogonalLoop=1;jettySize=auto;html=1;exitX=1;exitY=0.5;exitDx=0;exitDy=0;entryX=0;entryY=0.5;entryDx=0;entryDy=0;" parent="1" source="31yTLRak6UwY2Wjq4VYe-10" target="31yTLRak6UwY2Wjq4VYe-11" edge="1">
          <mxGeometry relative="1" as="geometry" />
        </mxCell>
        <mxCell id="31yTLRak6UwY2Wjq4VYe-10" value="Start Confirm Timeout" style="rounded=1;whiteSpace=wrap;html=1;" parent="1" vertex="1">
          <mxGeometry x="400" y="-225" width="80" height="35" as="geometry" />
        </mxCell>
        <mxCell id="31yTLRak6UwY2Wjq4VYe-46" style="edgeStyle=orthogonalEdgeStyle;rounded=1;orthogonalLoop=1;jettySize=auto;html=1;exitX=0.5;exitY=0;exitDx=0;exitDy=0;entryX=0;entryY=0.5;entryDx=0;entryDy=0;curved=0;" parent="1" source="31yTLRak6UwY2Wjq4VYe-11" target="31yTLRak6UwY2Wjq4VYe-52" edge="1">
          <mxGeometry relative="1" as="geometry">
            <mxPoint x="570" y="-290" as="targetPoint" />
            <Array as="points">
              <mxPoint x="535" y="-250" />
              <mxPoint x="607" y="-250" />
            </Array>
          </mxGeometry>
        </mxCell>
        <mxCell id="31yTLRak6UwY2Wjq4VYe-51" value="Timed out" style="edgeLabel;html=1;align=center;verticalAlign=middle;resizable=0;points=[];" parent="31yTLRak6UwY2Wjq4VYe-46" vertex="1" connectable="0">
          <mxGeometry x="0.2504" y="2" relative="1" as="geometry">
            <mxPoint x="-38" y="12" as="offset" />
          </mxGeometry>
        </mxCell>
        <mxCell id="31yTLRak6UwY2Wjq4VYe-47" style="edgeStyle=orthogonalEdgeStyle;rounded=1;orthogonalLoop=1;jettySize=auto;html=1;exitX=0.5;exitY=1;exitDx=0;exitDy=0;entryX=0;entryY=0.5;entryDx=0;entryDy=0;curved=0;" parent="1" source="31yTLRak6UwY2Wjq4VYe-11" target="31yTLRak6UwY2Wjq4VYe-19" edge="1">
          <mxGeometry relative="1" as="geometry" />
        </mxCell>
        <mxCell id="31yTLRak6UwY2Wjq4VYe-50" value="Received signal" style="edgeLabel;html=1;align=center;verticalAlign=middle;resizable=0;points=[];" parent="31yTLRak6UwY2Wjq4VYe-47" vertex="1" connectable="0">
          <mxGeometry x="-0.0171" y="-1" relative="1" as="geometry">
            <mxPoint x="28" y="-1" as="offset" />
          </mxGeometry>
        </mxCell>
        <mxCell id="31yTLRak6UwY2Wjq4VYe-11" value="" style="rhombus;whiteSpace=wrap;html=1;" parent="1" vertex="1">
          <mxGeometry x="520" y="-222.5" width="30" height="30" as="geometry" />
        </mxCell>
        <mxCell id="31yTLRak6UwY2Wjq4VYe-69" style="edgeStyle=orthogonalEdgeStyle;rounded=1;orthogonalLoop=1;jettySize=auto;html=1;entryX=0.75;entryY=0;entryDx=0;entryDy=0;exitX=1;exitY=0.5;exitDx=0;exitDy=0;curved=0;" parent="1" source="31yTLRak6UwY2Wjq4VYe-15" target="31yTLRak6UwY2Wjq4VYe-10" edge="1">
          <mxGeometry relative="1" as="geometry">
            <Array as="points">
              <mxPoint x="790" y="-292" />
              <mxPoint x="790" y="-340" />
              <mxPoint x="460" y="-340" />
            </Array>
          </mxGeometry>
        </mxCell>
        <mxCell id="31yTLRak6UwY2Wjq4VYe-76" value="Decrement retries" style="edgeLabel;html=1;align=center;verticalAlign=middle;resizable=0;points=[];" parent="31yTLRak6UwY2Wjq4VYe-69" vertex="1" connectable="0">
          <mxGeometry x="0.097" y="-4" relative="1" as="geometry">
            <mxPoint x="-1" y="4" as="offset" />
          </mxGeometry>
        </mxCell>
        <mxCell id="31yTLRak6UwY2Wjq4VYe-15" value="Resend the packet" style="rounded=1;whiteSpace=wrap;html=1;" parent="1" vertex="1">
          <mxGeometry x="690" y="-310" width="80" height="35" as="geometry" />
        </mxCell>
        <mxCell id="31yTLRak6UwY2Wjq4VYe-66" style="edgeStyle=orthogonalEdgeStyle;rounded=0;orthogonalLoop=1;jettySize=auto;html=1;exitX=1;exitY=0.5;exitDx=0;exitDy=0;entryX=0;entryY=0.5;entryDx=0;entryDy=0;" parent="1" target="31yTLRak6UwY2Wjq4VYe-58" edge="1">
          <mxGeometry relative="1" as="geometry">
            <mxPoint x="730" y="-205" as="sourcePoint" />
          </mxGeometry>
        </mxCell>
        <mxCell id="31yTLRak6UwY2Wjq4VYe-34" style="edgeStyle=orthogonalEdgeStyle;rounded=1;orthogonalLoop=1;jettySize=auto;html=1;entryX=0;entryY=0.5;entryDx=0;entryDy=0;curved=0;" parent="1" source="31yTLRak6UwY2Wjq4VYe-17" target="31yTLRak6UwY2Wjq4VYe-10" edge="1">
          <mxGeometry relative="1" as="geometry" />
        </mxCell>
        <mxCell id="31yTLRak6UwY2Wjq4VYe-17" value="Send Packet" style="rounded=1;whiteSpace=wrap;html=1;" parent="1" vertex="1">
          <mxGeometry x="300" y="-147.5" width="80" height="35" as="geometry" />
        </mxCell>
        <mxCell id="31yTLRak6UwY2Wjq4VYe-61" style="edgeStyle=orthogonalEdgeStyle;rounded=1;orthogonalLoop=1;jettySize=auto;html=1;exitX=1;exitY=0.5;exitDx=0;exitDy=0;entryX=0.5;entryY=1;entryDx=0;entryDy=0;curved=0;" parent="1" source="31yTLRak6UwY2Wjq4VYe-19" target="31yTLRak6UwY2Wjq4VYe-58" edge="1">
          <mxGeometry relative="1" as="geometry" />
        </mxCell>
        <mxCell id="31yTLRak6UwY2Wjq4VYe-19" value="End Timeout" style="rounded=1;whiteSpace=wrap;html=1;" parent="1" vertex="1">
          <mxGeometry x="660" y="-142.5" width="80" height="35" as="geometry" />
        </mxCell>
        <mxCell id="31yTLRak6UwY2Wjq4VYe-32" style="edgeStyle=orthogonalEdgeStyle;rounded=1;orthogonalLoop=1;jettySize=auto;html=1;exitX=1;exitY=0.5;exitDx=0;exitDy=0;entryX=0;entryY=0.5;entryDx=0;entryDy=0;curved=0;" parent="1" source="31yTLRak6UwY2Wjq4VYe-24" target="OVjrjm0DGqNcUa_zHmCY-43" edge="1">
          <mxGeometry relative="1" as="geometry" />
        </mxCell>
        <mxCell id="31yTLRak6UwY2Wjq4VYe-24" value="Send Confirm to Server" style="rounded=1;whiteSpace=wrap;html=1;" parent="1" vertex="1">
          <mxGeometry x="480" y="55" width="80" height="35" as="geometry" />
        </mxCell>
        <mxCell id="31yTLRak6UwY2Wjq4VYe-29" style="edgeStyle=orthogonalEdgeStyle;rounded=1;orthogonalLoop=1;jettySize=auto;html=1;exitX=0.5;exitY=1;exitDx=0;exitDy=0;entryX=0;entryY=0.5;entryDx=0;entryDy=0;curved=0;" parent="1" source="31yTLRak6UwY2Wjq4VYe-25" target="31yTLRak6UwY2Wjq4VYe-24" edge="1">
          <mxGeometry relative="1" as="geometry" />
        </mxCell>
        <mxCell id="31yTLRak6UwY2Wjq4VYe-31" value="Yes" style="edgeLabel;html=1;align=center;verticalAlign=middle;resizable=0;points=[];" parent="31yTLRak6UwY2Wjq4VYe-29" vertex="1" connectable="0">
          <mxGeometry x="-0.4155" y="3" relative="1" as="geometry">
            <mxPoint as="offset" />
          </mxGeometry>
        </mxCell>
        <mxCell id="31yTLRak6UwY2Wjq4VYe-25" value="" style="rhombus;whiteSpace=wrap;html=1;" parent="1" vertex="1">
          <mxGeometry x="425" y="-40" width="30" height="30" as="geometry" />
        </mxCell>
        <mxCell id="31yTLRak6UwY2Wjq4VYe-28" value="Should send Confirm?" style="text;html=1;align=center;verticalAlign=middle;whiteSpace=wrap;rounded=0;" parent="1" vertex="1">
          <mxGeometry x="395" y="-82.5" width="90" height="30" as="geometry" />
        </mxCell>
        <mxCell id="31yTLRak6UwY2Wjq4VYe-53" style="edgeStyle=orthogonalEdgeStyle;rounded=1;orthogonalLoop=1;jettySize=auto;html=1;exitX=0.5;exitY=1;exitDx=0;exitDy=0;entryX=0;entryY=0.5;entryDx=0;entryDy=0;curved=0;" parent="1" source="31yTLRak6UwY2Wjq4VYe-52" target="31yTLRak6UwY2Wjq4VYe-70" edge="1">
          <mxGeometry relative="1" as="geometry">
            <mxPoint x="640" y="-205" as="targetPoint" />
          </mxGeometry>
        </mxCell>
        <mxCell id="31yTLRak6UwY2Wjq4VYe-68" value="No" style="edgeLabel;html=1;align=center;verticalAlign=middle;resizable=0;points=[];" parent="31yTLRak6UwY2Wjq4VYe-53" vertex="1" connectable="0">
          <mxGeometry x="-0.4267" relative="1" as="geometry">
            <mxPoint as="offset" />
          </mxGeometry>
        </mxCell>
        <mxCell id="31yTLRak6UwY2Wjq4VYe-54" style="edgeStyle=orthogonalEdgeStyle;rounded=1;orthogonalLoop=1;jettySize=auto;html=1;exitX=0.5;exitY=0;exitDx=0;exitDy=0;entryX=0;entryY=0.5;entryDx=0;entryDy=0;curved=0;" parent="1" source="31yTLRak6UwY2Wjq4VYe-52" target="31yTLRak6UwY2Wjq4VYe-15" edge="1">
          <mxGeometry relative="1" as="geometry" />
        </mxCell>
        <mxCell id="31yTLRak6UwY2Wjq4VYe-56" value="Yes" style="edgeLabel;html=1;align=center;verticalAlign=middle;resizable=0;points=[];" parent="31yTLRak6UwY2Wjq4VYe-54" vertex="1" connectable="0">
          <mxGeometry x="-0.1407" y="-1" relative="1" as="geometry">
            <mxPoint x="10" y="-1" as="offset" />
          </mxGeometry>
        </mxCell>
        <mxCell id="31yTLRak6UwY2Wjq4VYe-52" value="" style="rhombus;whiteSpace=wrap;html=1;" parent="1" vertex="1">
          <mxGeometry x="620" y="-265" width="30" height="30" as="geometry" />
        </mxCell>
        <mxCell id="31yTLRak6UwY2Wjq4VYe-55" value="Retries &amp;gt; 0?" style="text;html=1;align=center;verticalAlign=middle;whiteSpace=wrap;rounded=0;" parent="1" vertex="1">
          <mxGeometry x="530" y="-285" width="90" height="30" as="geometry" />
        </mxCell>
        <mxCell id="31yTLRak6UwY2Wjq4VYe-58" value="" style="rhombus;whiteSpace=wrap;html=1;" parent="1" vertex="1">
          <mxGeometry x="780" y="-220" width="30" height="30" as="geometry" />
        </mxCell>
        <mxCell id="31yTLRak6UwY2Wjq4VYe-63" style="edgeStyle=orthogonalEdgeStyle;rounded=0;orthogonalLoop=1;jettySize=auto;html=1;exitX=1;exitY=0.5;exitDx=0;exitDy=0;entryX=0.557;entryY=-0.3;entryDx=0;entryDy=0;entryPerimeter=0;" parent="1" source="31yTLRak6UwY2Wjq4VYe-58" target="OVjrjm0DGqNcUa_zHmCY-62" edge="1">
          <mxGeometry relative="1" as="geometry" />
        </mxCell>
        <mxCell id="31yTLRak6UwY2Wjq4VYe-70" value="Send signal to FSM" style="rounded=1;whiteSpace=wrap;html=1;" parent="1" vertex="1">
          <mxGeometry x="655" y="-207.5" width="80" height="35" as="geometry" />
        </mxCell>
      </root>
    </mxGraphModel>
  </diagram>
</mxfile>
